<?xml version="1.0" standalone="no"?><!DOCTYPE svg PUBLIC "-//W3C//DTD SVG 1.1//EN" "http://www.w3.org/Graphics/SVG/1.1/DTD/svg11.dtd"><svg t="1701323177403" class="icon" viewBox="0 0 2252 1024" version="1.1" xmlns="http://www.w3.org/2000/svg" p-id="6635" xmlns:xlink="http://www.w3.org/1999/xlink" width="439.84375" height="200"><path d="M1980.70272 40.96L1884.16 1024h272.09728L2252.8 40.96z" fill="#00B5F4" p-id="6636"></path><path d="M9.6256 532.48L0 614.4h154.2144L163.84 532.48zM327.68 655.36l-8.76544 81.92H204.8l8.76544-81.92zM337.42848 778.24L327.68 860.16h195.05152L532.48 778.24zM409.6 538.95168h159.41632L560.16896 614.4h159.41632L737.28 495.8208h-150.56896L595.59936 409.6h-168.30464zM204.8 409.6h115.22048L327.68 327.68H212.45952zM368.64 245.76h194.56L573.44 163.84H378.88zM573.44 368.64h194.02752L778.24 286.72h-194.02752zM614.4 122.88l10.24-81.92H819.2l-10.24 81.92zM1537.6384 210.65728h-116.44928l9.70752-65.536h116.40832l-9.70752 65.536zM1450.27072 753.664h-368.64l9.70752-131.072h358.93248c37.35552 0 67.91168 29.4912 67.91168 65.536 0 36.0448-30.55616 65.536-67.91168 65.536zM1013.76 145.12128h184.32l-9.70752 93.63456h-184.32l9.70752-93.63456z m203.73504 121.69216h164.90496L1372.69248 360.448h-164.90496l9.70752-93.63456z m528.71168 220.03712v-9.37984C1809.28512 416.60416 1843.2 360.448 1843.2 262.144 1843.2 9.37984 1523.05664 0 1523.05664 0H1028.3008l-19.37408 112.35328h-174.65344l-19.37408 140.41088h184.32l-9.70752 112.35328h-184.32L737.28 983.04h727.57248C1804.41088 983.04 1843.2 777.05216 1843.2 655.36s-96.99328-168.50944-96.99328-168.50944z" fill="#00BDFF" p-id="6637"></path></svg>